<?xml version="1.0" encoding="UTF-8" standalone="no"?>
<!-- Created with Inkscape (http://www.inkscape.org/) -->

<svg
   xmlns:dc="http://purl.org/dc/elements/1.1/"
   xmlns:cc="http://creativecommons.org/ns#"
   xmlns:rdf="http://www.w3.org/1999/02/22-rdf-syntax-ns#"
   xmlns:svg="http://www.w3.org/2000/svg"
   xmlns="http://www.w3.org/2000/svg"
   xmlns:sodipodi="http://sodipodi.sourceforge.net/DTD/sodipodi-0.dtd"
   xmlns:inkscape="http://www.inkscape.org/namespaces/inkscape"
   width="210mm"
   height="210mm"
   viewBox="0 0 744.09449 744.09448"
   id="svg2"
   version="1.1"
   inkscape:version="0.91 r13725"
   sodipodi:docname="splash-template.svg"
   inkscape:export-filename="C:\Users\peter\Documents\New folder\g3398-splash.png"
   inkscape:export-xdpi="267.06287"
   inkscape:export-ydpi="267.06287">
  <defs
     id="defs4" />
  <sodipodi:namedview
     id="base"
     pagecolor="#ffffff"
     bordercolor="#666666"
     borderopacity="1.0"
     inkscape:pageopacity="0.0"
     inkscape:pageshadow="2"
     inkscape:zoom="0.35"
     inkscape:cx="750.24864"
     inkscape:cy="344.07895"
     inkscape:document-units="px"
     inkscape:current-layer="layer1"
     showgrid="false"
     showguides="true"
     inkscape:guide-bbox="true"
     inkscape:window-width="1097"
     inkscape:window-height="564"
     inkscape:window-x="-8"
     inkscape:window-y="-8"
     inkscape:window-maximized="1">
    <sodipodi:guide
       position="351.53309,961.66522"
       orientation="1,0"
       id="guide3505" />
    <sodipodi:guide
       position="-189.90868,371.73614"
       orientation="0,1"
       id="guide3507" />
  </sodipodi:namedview>
  <metadata
     id="metadata7">
    <rdf:RDF>
      <cc:Work
         rdf:about="">
        <dc:format>image/svg+xml</dc:format>
        <dc:type
           rdf:resource="http://purl.org/dc/dcmitype/StillImage" />
        <dc:title />
      </cc:Work>
    </rdf:RDF>
  </metadata>
  <g
     inkscape:label="Layer 1"
     inkscape:groupmode="layer"
     id="layer1"
     transform="translate(0,-308.26772)">
    <rect
       style="fill:#ffffff;stroke:none;stroke-width:4"
       id="rect3420"
       width="788.96234"
       height="775.25269"
       x="-20.729044"
       y="297.86081" />
    <g
       id="g3420"
       transform="matrix(15.359127,0,0,15.359127,247.82852,553.91228)"
       style="fill:#008000">
      <g
         id="g3356"
         style="fill:#008000">
        <g
           id="g3358"
           style="fill:#008000">
          <path
             id="path3360"
             d="m 12.705,0 c -1.216,0 -2.204,0.987 -2.204,2.206 0,0.238 0.04,0.466 0.108,0.68 0.123,0.434 1.258,3.484 1.74,4.78 -0.232,0.088 -0.397,0.308 -0.397,0.57 0,0.339 0.275,0.614 0.614,0.614 0.34,0 0.614,-0.275 0.614,-0.614 0,-0.011 -0.005,-0.021 -0.007,-0.032 C 13.172,8.136 13.158,8.072 13.135,8.014 13.13,7.998 13.122,7.987 13.114,7.972 13.094,7.931 13.071,7.893 13.04,7.861 12.978,7.784 12.905,7.717 12.814,7.677 13.338,6.459 14.543,3.648 14.77,2.978 14.859,2.738 14.911,2.478 14.911,2.206 14.913,0.987 13.925,0 12.705,0 Z m 0.059,3.621 c -0.776,0 -1.406,-0.63 -1.406,-1.407 0,-0.777 0.63,-1.406 1.406,-1.406 0.778,0 1.408,0.629 1.408,1.406 -0.001,0.776 -0.63,1.407 -1.408,1.407 z"
             style="fill:#008000"
             inkscape:connector-curvature="0" />
          <circle
             id="circle3362"
             r="1.026"
             cy="2.178"
             cx="12.763"
             style="fill:#008000" />
          <path
             id="path3364"
             d="M 0.14,4.713 C 0.259,4.688 2.665,4.186 4.557,5.519 l 0,-2.845 -4.417,0.481 0,1.558 z"
             style="fill:#008000"
             inkscape:connector-curvature="0" />
          <polygon
             id="polygon3366"
             points="4.557,13.607 4.557,10.775 0.14,11.073 0.14,14.087 "
             style="fill:#008000" />
          <path
             id="path3368"
             d="m 0.14,5.185 0,5.298 4.417,-0.299 0,-4.048 C 2.785,4.656 0.168,5.177 0.14,5.185 Z"
             style="fill:#008000"
             inkscape:connector-curvature="0" />
          <path
             id="path3370"
             d="m 5.201,6.796 0,3.463 0.024,-0.123 4.393,0.912 0,-1.91 C 9.451,9.147 9.288,9.152 9.139,9.152 7.278,9.152 6.665,8.504 5.201,6.796 Z"
             style="fill:#008000"
             inkscape:connector-curvature="0" />
          <polygon
             id="polygon3372"
             points="9.617,15.052 9.617,11.651 5.201,10.734 5.201,13.607 "
             style="fill:#008000" />
          <path
             id="path3374"
             d="m 5.201,6.078 c 0.06,0.063 0.124,0.121 0.183,0.19 L 5.416,6.307 C 7.083,8.254 7.529,8.775 9.618,8.66 l 0,-4.539 -4.417,-1.447 0,3.404 z"
             style="fill:#008000"
             inkscape:connector-curvature="0" />
          <polygon
             id="polygon3376"
             points="14.59,14.087 14.59,10.788 10.17,11.659 10.17,15.052 "
             style="fill:#008000" />
          <path
             id="path3378"
             d="m 13.965,8.227 c 0,0.745 -0.604,1.35 -1.353,1.35 -0.546,0 -1.017,-0.326 -1.229,-0.796 l -1.15,0.314 C 10.211,9.098 10.192,9.099 10.17,9.101 l 0,1.958 4.419,-0.873 0,-2.279 -0.638,0.175 c 0.005,0.048 0.014,0.095 0.014,0.145 z"
             style="fill:#008000"
             inkscape:connector-curvature="0" />
          <path
             id="path3380"
             d="m 13.817,7.621 0.709,-0.192 0.063,-0.009 0,-2.2 c -0.101,0.147 -0.865,2.261 -0.865,2.261 0.031,0.047 0.067,0.09 0.093,0.14 z"
             style="fill:#008000"
             inkscape:connector-curvature="0" />
          <path
             id="path3382"
             d="m 11.262,8.227 c 0,-0.296 0.104,-0.559 0.265,-0.78 0,0 -1.126,-2.59 -1.356,-3 l 0,4.17 1.1,-0.3 C 11.268,8.286 11.262,8.257 11.262,8.227 Z"
             style="fill:#008000"
             inkscape:connector-curvature="0" />
        </g>
      </g>
      <g
         id="g3384"
         style="fill:#008000" />
      <g
         id="g3386"
         style="fill:#008000" />
      <g
         id="g3388"
         style="fill:#008000" />
      <g
         id="g3390"
         style="fill:#008000" />
      <g
         id="g3392"
         style="fill:#008000" />
      <g
         id="g3394"
         style="fill:#008000" />
      <g
         id="g3396"
         style="fill:#008000" />
      <g
         id="g3398"
         style="fill:#008000" />
      <g
         id="g3400"
         style="fill:#008000" />
      <g
         id="g3402"
         style="fill:#008000" />
      <g
         id="g3404"
         style="fill:#008000" />
      <g
         id="g3406"
         style="fill:#008000" />
      <g
         id="g3408"
         style="fill:#008000" />
      <g
         id="g3410"
         style="fill:#008000" />
      <g
         id="g3412"
         style="fill:#008000" />
    </g>
  </g>
</svg>
