<?xml version="1.0" encoding="UTF-8" standalone="no"?>
<!-- Generator: Adobe Illustrator 16.0.0, SVG Export Plug-In . SVG Version: 6.00 Build 0)  -->

<svg
   xmlns:dc="http://purl.org/dc/elements/1.1/"
   xmlns:cc="http://creativecommons.org/ns#"
   xmlns:rdf="http://www.w3.org/1999/02/22-rdf-syntax-ns#"
   xmlns:svg="http://www.w3.org/2000/svg"
   xmlns="http://www.w3.org/2000/svg"
   xmlns:sodipodi="http://sodipodi.sourceforge.net/DTD/sodipodi-0.dtd"
   xmlns:inkscape="http://www.inkscape.org/namespaces/inkscape"
   version="1.1"
   id="Capa_1"
   x="0px"
   y="0px"
   width="314.069px"
   height="314.069px"
   viewBox="0 0 314.069 314.069"
   style="enable-background:new 0 0 314.069 314.069;"
   xml:space="preserve"
   inkscape:version="0.91 r13725"
   sodipodi:docname="marker.svg"
   inkscape:export-filename="C:\Users\peter\Documents\New folder\marker-icon.png"
   inkscape:export-xdpi="73.360001"
   inkscape:export-ydpi="73.360001"><metadata
     id="metadata44"><rdf:RDF><cc:Work
         rdf:about=""><dc:format>image/svg+xml</dc:format><dc:type
           rdf:resource="http://purl.org/dc/dcmitype/StillImage" /><dc:title></dc:title></cc:Work></rdf:RDF></metadata><defs
     id="defs42" /><sodipodi:namedview
     pagecolor="#ffffff"
     bordercolor="#666666"
     borderopacity="1"
     objecttolerance="10"
     gridtolerance="10"
     guidetolerance="10"
     inkscape:pageopacity="0"
     inkscape:pageshadow="2"
     inkscape:window-width="1097"
     inkscape:window-height="564"
     id="namedview40"
     showgrid="false"
     inkscape:zoom="0.75142723"
     inkscape:cx="278.85184"
     inkscape:cy="132.96141"
     inkscape:window-x="-8"
     inkscape:window-y="-8"
     inkscape:window-maximized="1"
     inkscape:current-layer="Capa_1" /><circle
     style="fill:#ffff00;fill-opacity:1;stroke:none;stroke-width:4;opacity:0.6"
     id="path4174"
     cx="157.62057"
     cy="157.38945"
     r="138.8002" /><g
     id="g3"
     style="fill:#0044aa"><g
       id="_x34_95._Up"
       style="fill:#0044aa"><g
         id="g6"
         style="fill:#0044aa"><path
           d="M168.133,97.482c-6.126-6.127-16.072-6.127-22.197,0h-0.008c-0.016,0.016-0.024,0.032-0.032,0.04l-44.369,44.364     c-6.133,6.129-6.133,16.08,0,22.208v-0.009c6.129,6.132,16.068,6.132,22.201,0l17.607-17.598v65.503     c0,8.664,7.033,15.701,15.701,15.701c8.668,0,15.696-7.037,15.696-15.701v-65.503l17.602,17.598     c6.135,6.132,16.077,6.132,22.201,0v0.009c6.135-6.128,6.135-16.078,0-22.208L168.133,97.482z M293.004,78.525     C249.648,3.436,153.62-22.295,78.531,21.061C3.436,64.411-22.296,160.443,21.068,235.542     c43.35,75.087,139.375,100.822,214.465,57.467C310.629,249.648,336.365,153.621,293.004,78.525z M219.836,265.802     c-60.075,34.685-136.894,14.114-171.576-45.969C13.57,159.762,34.163,82.936,94.232,48.253     c60.071-34.683,136.894-14.099,171.578,45.979C300.495,154.308,279.908,231.118,219.836,265.802z"
           id="path8"
           style="fill:#0044aa" /></g></g></g><g
     id="g10" /><g
     id="g12" /><g
     id="g14" /><g
     id="g16" /><g
     id="g18" /><g
     id="g20" /><g
     id="g22" /><g
     id="g24" /><g
     id="g26" /><g
     id="g28" /><g
     id="g30" /><g
     id="g32" /><g
     id="g34" /><g
     id="g36" /><g
     id="g38" /></svg>